<svg width="31" height="31" viewBox="0 0 31 31" fill="none" xmlns="http://www.w3.org/2000/svg">
<path d="M15.8056 9.90907C12.4804 9.90907 9.79677 12.5927 9.79677 15.9179C9.79677 19.2431 12.4804 21.9267 15.8056 21.9267C19.1308 21.9267 21.8143 19.2431 21.8143 15.9179C21.8143 12.5927 19.1308 9.90907 15.8056 9.90907ZM15.8056 19.8231C13.6552 19.8231 11.9003 18.0683 11.9003 15.9179C11.9003 13.7675 13.6552 12.0126 15.8056 12.0126C17.9559 12.0126 19.7108 13.7675 19.7108 15.9179C19.7108 18.0683 17.9559 19.8231 15.8056 19.8231ZM22.0604 8.26259C21.2841 8.26259 20.6571 8.88954 20.6571 9.66591C20.6571 10.4423 21.2841 11.0692 22.0604 11.0692C22.8368 11.0692 23.4638 10.4452 23.4638 9.66591C23.464 9.48156 23.4279 9.29897 23.3574 9.12861C23.287 8.95825 23.1836 8.80345 23.0533 8.6731C22.9229 8.54274 22.7681 8.43938 22.5977 8.36894C22.4274 8.2985 22.2448 8.26236 22.0604 8.26259ZM27.5184 15.9179C27.5184 14.3007 27.5331 12.6981 27.4423 11.0839C27.3515 9.20888 26.9237 7.54482 25.5526 6.17372C24.1786 4.7997 22.5175 4.37489 20.6425 4.28407C19.0253 4.19325 17.4227 4.2079 15.8085 4.2079C14.1913 4.2079 12.5888 4.19325 10.9745 4.28407C9.0995 4.37489 7.43544 4.80263 6.06435 6.17372C4.69032 7.54775 4.26552 9.20888 4.1747 11.0839C4.08388 12.7011 4.09853 14.3036 4.09853 15.9179C4.09853 17.5321 4.08388 19.1376 4.1747 20.7519C4.26552 22.6269 4.69325 24.2909 6.06435 25.662C7.43837 27.036 9.0995 27.4608 10.9745 27.5517C12.5917 27.6425 14.1942 27.6278 15.8085 27.6278C17.4257 27.6278 19.0282 27.6425 20.6425 27.5517C22.5175 27.4608 24.1815 27.0331 25.5526 25.662C26.9267 24.288 27.3515 22.6269 27.4423 20.7519C27.536 19.1376 27.5184 17.5351 27.5184 15.9179ZM24.9403 22.8261C24.7265 23.3593 24.4686 23.7577 24.0556 24.1679C23.6425 24.581 23.247 24.8388 22.7138 25.0526C21.1727 25.6649 17.5136 25.5272 15.8056 25.5272C14.0975 25.5272 10.4354 25.6649 8.89443 25.0556C8.36122 24.8417 7.96279 24.5839 7.55263 24.1708C7.13954 23.7577 6.88173 23.3622 6.66786 22.829C6.05849 21.2851 6.19618 17.6259 6.19618 15.9179C6.19618 14.2099 6.05849 10.5477 6.66786 9.00673C6.88173 8.47353 7.13954 8.07509 7.55263 7.66493C7.96571 7.25478 8.36122 6.99404 8.89443 6.78017C10.4354 6.17079 14.0975 6.30849 15.8056 6.30849C17.5136 6.30849 21.1757 6.17079 22.7167 6.78017C23.2499 6.99404 23.6483 7.25185 24.0585 7.66493C24.4716 8.07802 24.7294 8.47353 24.9433 9.00673C25.5526 10.5477 25.4149 14.2099 25.4149 15.9179C25.4149 17.6259 25.5526 21.2851 24.9403 22.8261Z" fill="#1E2123"/>
</svg>
