<svg width="13" height="15" viewBox="0 0 13 15" fill="none" xmlns="http://www.w3.org/2000/svg">
<path d="M11.5069 2.61628C10.4081 0.941861 8.59415 0 6.55346 0C4.5302 0 2.71625 0.941861 1.58253 2.61628C0.448804 4.25581 0.187176 6.34884 0.884851 8.18023C1.07671 8.6686 1.37322 9.17442 1.75694 9.62791L6.16973 14.8256C6.27439 14.9302 6.37904 15 6.53601 15C6.69299 15 6.79764 14.9302 6.90229 14.8256L11.3325 9.62791C11.7162 9.17442 12.0302 8.68605 12.2046 8.18023C12.9023 6.34884 12.6407 4.25581 11.5069 2.61628ZM6.55346 8.7907C5.05346 8.7907 3.81508 7.55233 3.81508 6.05233C3.81508 4.55233 5.05346 3.31395 6.55346 3.31395C8.05346 3.31395 9.29183 4.55233 9.29183 6.05233C9.29183 7.55233 8.0709 8.7907 6.55346 8.7907Z" fill="#FFD54F"/>
</svg>
