<svg width="16" height="16" viewBox="0 0 16 16" fill="none" xmlns="http://www.w3.org/2000/svg">
<g clip-path="url(#clip0_2831_1948)">
<path d="M7.70218 0.794922C5.55931 0.794922 3.80762 2.54661 3.80762 4.68949C3.80762 6.83236 5.55931 8.58405 7.70218 8.58405C9.84504 8.58405 11.5967 6.83236 11.5967 4.68949C11.5967 2.54661 9.84504 0.794922 7.70218 0.794922Z" fill="#686868"/>
<path d="M14.3864 11.6969C14.2843 11.4418 14.1483 11.2037 13.9953 10.9826C13.2129 9.82616 12.0055 9.06086 10.6449 8.87378C10.4749 8.85679 10.2878 8.89077 10.1517 8.99282C9.43744 9.52004 8.58712 9.79214 7.70274 9.79214C6.81837 9.79214 5.96804 9.52004 5.25375 8.99282C5.11768 8.89077 4.93061 8.83976 4.76056 8.87378C3.40001 9.06086 2.17553 9.82616 1.41023 10.9826C1.25717 11.2037 1.1211 11.4588 1.01908 11.6969C0.968075 11.799 0.985068 11.918 1.03608 12.0201C1.17214 12.2582 1.3422 12.4963 1.49526 12.7003C1.73334 13.0235 1.98845 13.3126 2.27758 13.5847C2.51567 13.8228 2.78777 14.0439 3.0599 14.265C4.40343 15.2684 6.01908 15.7956 7.68575 15.7956C9.35242 15.7956 10.9681 15.2684 12.3116 14.265C12.5837 14.0609 12.8558 13.8228 13.0939 13.5847C13.366 13.3126 13.6381 13.0235 13.8762 12.7003C14.0463 12.4793 14.1994 12.2582 14.3354 12.0201C14.4204 11.918 14.4374 11.7989 14.3864 11.6969Z" fill="#686868"/>
</g>
<defs>
<clipPath id="clip0_2831_1948">
<rect width="15" height="15" fill="white" transform="translate(0.201172 0.794922)"/>
</clipPath>
</defs>
</svg>
