<svg width="31" height="31" viewBox="0 0 31 31" fill="none" xmlns="http://www.w3.org/2000/svg">
<path d="M27.2554 9.61604C27.4231 9.06908 27.2554 8.66797 26.4625 8.66797H23.836C23.1676 8.66797 22.8622 9.01497 22.6946 9.39608C22.6946 9.39608 21.3591 12.5944 19.4668 14.6681C18.8559 15.2716 18.5769 15.4621 18.2439 15.4621C18.0774 15.4621 17.8355 15.2716 17.8355 14.7246V9.61604C17.8355 8.95968 17.6427 8.66797 17.0857 8.66797H12.9585C12.5417 8.66797 12.2902 8.97145 12.2902 9.26081C12.2902 9.88188 13.2363 10.0254 13.3333 11.7757V15.5727C13.3333 16.4043 13.1812 16.5561 12.8459 16.5561C11.956 16.5561 9.79056 13.346 8.50543 9.67133C8.25511 8.95733 8.0024 8.66915 7.33169 8.66915H4.70633C3.95538 8.66915 3.80566 9.01615 3.80566 9.39726C3.80566 10.0818 4.69555 13.4695 7.9509 17.9499C10.1211 21.0094 13.1765 22.668 15.9599 22.668C17.6283 22.668 17.8343 22.2998 17.8343 21.6646V19.3521C17.8343 18.6157 17.9936 18.4675 18.5218 18.4675C18.9098 18.4675 19.5781 18.6604 21.1364 20.1343C22.9161 21.8822 23.2108 22.6668 24.2108 22.6668H26.8362C27.586 22.6668 27.9608 22.2986 27.7452 21.5717C27.5093 20.8483 26.6589 19.7955 25.5307 18.5498C24.9175 17.8394 24.0012 17.0748 23.7222 16.6925C23.3329 16.1996 23.4455 15.982 23.7222 15.5445C23.7234 15.5456 26.9224 11.1205 27.2554 9.61604Z" fill="#1E2123"/>
</svg>
